ply
format ascii 1.0
comment Simple dragon point cloud for testing
element vertex 20
property float x
property float y
property float z
property uchar red
property uchar green
property uchar blue
end_header
0.0 0.0 0.0 30 200 30
0.5 0.2 0.0 30 200 30
1.0 0.5 0.0 30 200 30
1.5 0.7 0.0 30 200 30
2.0 0.8 0.0 30 200 30
2.5 0.7 0.0 30 200 30
3.0 0.5 0.0 30 200 30
3.5 0.2 0.0 30 200 30
4.0 0.0 0.0 30 200 30
0.5 -0.2 0.0 30 180 30
1.0 -0.5 0.0 30 180 30
1.5 -0.7 0.0 30 180 30
2.0 -0.8 0.0 30 180 30
2.5 -0.7 0.0 30 180 30
3.0 -0.5 0.0 30 180 30
3.5 -0.2 0.0 30 180 30
2.0 0.0 0.5 30 220 30
1.5 0.0 0.4 30 220 30
2.5 0.0 0.4 30 220 30
2.0 -0.2 0.7 255 100 30
